<svg viewBox="0 0 44 44" xmlns="http://www.w3.org/2000/svg"><path fill="#FE7E4E" d="M21.658 40.646V4H44v36.646H21.658zm-4.915 0v-4.58h2.809v4.58h-2.808zm-11.162 0v-4.58h2.79v4.58h-2.79zm5.581-6.406v-4.58h2.79v4.58h-2.79zM0 34.24v-4.58h2.773v4.58H0zm16.744-6.424v-4.58h2.808v4.58h-2.808zm-11.163 0v-4.58h2.79v4.58h-2.79zm5.581-6.406v-4.58h2.79v4.58h-2.79zM0 21.41v-4.58h2.773v4.58H0zm16.744-6.423v-4.58h2.808v4.58h-2.808zm-11.163 0v-4.58h2.79v4.58h-2.79zm5.581-6.406V4h2.79v4.58h-2.79zM0 8.58V4h2.773v4.58H0z"/><path fill="#FE7E4E" d="M21.658 40.646V4H44v36.646H21.658zm-4.915 0v-4.58h2.809v4.58h-2.808zm-11.162 0v-4.58h2.79v4.58h-2.79zm5.581-6.406v-4.58h2.79v4.58h-2.79zM0 34.24v-4.58h2.773v4.58H0zm16.744-6.424v-4.58h2.808v4.58h-2.808zm-11.163 0v-4.58h2.79v4.58h-2.79zm5.581-6.406v-4.58h2.79v4.58h-2.79zM0 21.41v-4.58h2.773v4.58H0zm16.744-6.423v-4.58h2.808v4.58h-2.808zm-11.163 0v-4.58h2.79v4.58h-2.79zm5.581-6.406V4h2.79v4.58h-2.79zM0 8.58V4h2.773v4.58H0z"/></svg>